<svg xmlns="http://www.w3.org/2000/svg" viewBox="0 0 24 24" width="24" height="24">
    <path fill="white" d="M12 0C5.4 0 0 5.4 0 12s5.4 12 12 12 12-5.4 12-12S18.66 0 12 0zm5.521 17.34c-.24.371-.721.49-1.101.241-3.021-1.85-6.82-2.27-11.3-1.24-.418.1-.851-.16-.95-.58-.101-.42.159-.84.579-.94 4.91-1.121 9.021-.67 12.441 1.319.39.239.49.72.24 1.099zm1.47-3.27c-.301.45-.921.6-1.381.3-3.461-2.13-8.731-2.76-12.821-1.51-.51.15-1.05-.15-1.2-.67-.15-.51.15-1.05.67-1.2 4.671-1.421 10.471-.721 14.461 1.71.45.3.6.93.3 1.38zm.129-3.39c-4.15-2.461-11.001-2.69-14.971-1.49-.621.18-1.271-.18-1.441-.8-.18-.621.18-1.271.8-1.441 4.561-1.381 12.121-1.12 16.891 1.71.57.34.75 1.08.41 1.649-.34.57-1.08.75-1.649.41z"/>
</svg>